{
	"asset":{
		"generator":"Khronos glTF Blender I/O v4.1.63",
		"version":"2.0"
	},
	"scene":0,
	"scenes":[
		{
			"name":"Scene",
			"nodes":[
				0
			]
		}
	],
	"nodes":[
		{
			"mesh":0,
			"name":"path193",
			"translation":[
				0,
				2.9264957904815674,
				-0.2548048198223114
			]
		}
	],
	"materials":[
		{
			"doubleSided":true,
			"name":"SVGMat.001",
			"pbrMetallicRoughness":{
				"baseColorTexture":{
					"index":0
				},
				"metallicFactor":0,
				"roughnessFactor":0.4000000059604645
			}
		}
	],
	"meshes":[
		{
			"name":"path193",
			"primitives":[
				{
					"attributes":{
						"POSITION":0,
						"NORMAL":1,
						"TEXCOORD_0":2
					},
					"indices":3,
					"material":0
				}
			]
		}
	],
	"textures":[
		{
			"sampler":0,
			"source":0
		}
	],
	"images":[
		{
			"mimeType":"image/png",
			"name":"red",
			"uri":"red.png"
		}
	],
	"accessors":[
		{
			"bufferView":0,
			"componentType":5126,
			"count":3234,
			"max":[
				6.430886745452881,
				0.1717386245727539,
				0.5777372121810913
			],
			"min":[
				-5.767620086669922,
				-1.0472842454910278,
				-0.08573645353317261
			],
			"type":"VEC3"
		},
		{
			"bufferView":1,
			"componentType":5126,
			"count":3234,
			"type":"VEC3"
		},
		{
			"bufferView":2,
			"componentType":5126,
			"count":3234,
			"type":"VEC2"
		},
		{
			"bufferView":3,
			"componentType":5123,
			"count":6756,
			"type":"SCALAR"
		}
	],
	"bufferViews":[
		{
			"buffer":0,
			"byteLength":38808,
			"byteOffset":0,
			"target":34962
		},
		{
			"buffer":0,
			"byteLength":38808,
			"byteOffset":38808,
			"target":34962
		},
		{
			"buffer":0,
			"byteLength":25872,
			"byteOffset":77616,
			"target":34962
		},
		{
			"buffer":0,
			"byteLength":13512,
			"byteOffset":103488,
			"target":34963
		}
	],
	"samplers":[
		{
			"magFilter":9729,
			"minFilter":9987
		}
	],
	"buffers":[
		{
			"byteLength":117000,
			"uri":"menulogo.bin"
		}
	]
}
